<?xml version="1.0" standalone="no"?>
<!DOCTYPE svg PUBLIC "-//W3C//DTD SVG 20010904//EN"
 "http://www.w3.org/TR/2001/REC-SVG-20010904/DTD/svg10.dtd">
<svg version="1.0" xmlns="http://www.w3.org/2000/svg"
 width="1500.000000pt" height="1500.000000pt" viewBox="0 0 1500.000000 1500.000000"
 preserveAspectRatio="xMidYMid meet">
<metadata>
Created by potrace 1.12, written by Peter Selinger 2001-2015
</metadata>
<g transform="translate(0.000000,1500.000000) scale(0.100000,-0.100000)"
fill="#000000" stroke="none">
<path d="M7210 14454 c-564 -37 -877 -82 -1350 -195 -894 -214 -1690 -582
-2445 -1129 -808 -586 -1504 -1368 -1993 -2242 -483 -862 -772 -1824 -864
-2878 -16 -190 -16 -840 0 -1030 80 -914 304 -1748 678 -2520 435 -897 1079
-1714 1849 -2345 815 -669 1729 -1128 2738 -1374 1151 -282 2213 -282 3364 0
904 221 1713 602 2468 1164 288 214 468 369 733 630 1210 1190 1917 2713 2064
4445 7 91 13 303 13 515 0 559 -45 976 -164 1510 -239 1071 -684 1998 -1373
2856 -533 666 -1223 1254 -1973 1684 -862 495 -1841 798 -2880 891 -158 14
-739 26 -865 18z m865 -218 c1004 -90 1927 -377 2780 -864 535 -305 982 -648
1431 -1096 448 -449 788 -893 1096 -1431 494 -864 778 -1790 870 -2835 17
-191 17 -840 0 -1030 -82 -925 -300 -1713 -689 -2494 -931 -1870 -2676 -3211
-4711 -3621 -473 -95 -834 -130 -1347 -129 -350 0 -527 9 -785 40 -1381 166
-2635 723 -3680 1637 -148 129 -488 469 -617 617 -839 960 -1379 2097 -1592
3355 -24 144 -55 396 -73 595 -16 190 -16 839 0 1030 80 916 300 1714 689
2495 265 531 583 1005 976 1455 129 148 469 488 617 617 1045 913 2304 1473
3680 1637 107 13 255 25 490 40 126 8 707 -4 865 -18z"/>
<path d="M9140 12079 c-306 -37 -562 -101 -825 -207 -92 -38 -317 -155 -411
-215 -295 -187 -536 -420 -717 -692 -86 -130 -161 -270 -152 -285 3 -5 27 -12
53 -15 26 -3 87 -15 135 -26 49 -10 92 -19 97 -19 5 0 19 21 32 47 36 72 155
243 237 338 281 327 725 590 1196 709 395 100 834 108 1235 24 365 -77 681
-217 982 -438 56 -41 155 -127 219 -190 274 -271 442 -575 515 -929 37 -175
38 -439 5 -611 -22 -111 -64 -251 -101 -335 -10 -22 -26 -60 -37 -85 -11 -25
-46 -88 -77 -140 -161 -266 -402 -508 -677 -681 -46 -29 -243 -190 -438 -357
-194 -166 -355 -301 -357 -299 -3 3 45 124 80 202 34 74 44 105 36 110 -8 5
-46 2 -315 -25 -260 -26 -537 -24 -801 6 l-51 6 -6 -128 c-3 -71 -8 -136 -12
-146 -9 -22 1 -24 195 -44 116 -11 220 -15 348 -12 100 3 182 2 182 -2 0 -6
-104 -261 -120 -295 -10 -21 -78 -183 -182 -435 -33 -80 -66 -158 -74 -174
-20 -42 -18 -68 5 -64 11 2 217 172 458 380 1008 866 1173 1005 1264 1063 267
170 551 459 711 726 140 230 222 450 269 714 47 267 18 660 -66 900 -8 22 -23
67 -35 100 -66 186 -231 458 -386 636 -295 339 -691 598 -1144 748 -242 80
-340 102 -619 136 -129 16 -526 18 -651 4z"/>
<path d="M9630 11201 c-76 -24 -155 -96 -186 -168 -21 -49 -24 -167 -5 -213
46 -112 136 -179 250 -188 93 -6 156 15 226 79 149 137 118 359 -64 467 -35
20 -59 26 -120 28 -42 2 -87 0 -101 -5z"/>
<path d="M9346 10448 c-4 -13 -8 -31 -82 -388 -25 -118 -59 -278 -75 -355 -16
-77 -34 -160 -39 -185 -5 -25 -23 -110 -40 -190 -35 -167 -48 -353 -31 -444
40 -214 197 -330 422 -313 196 15 329 138 363 334 l5 33 -72 -6 c-142 -12
-197 26 -197 136 0 30 14 120 31 200 17 80 44 208 60 285 16 77 42 203 58 280
17 77 46 217 65 310 20 94 43 201 51 240 8 38 15 71 15 72 0 2 -119 3 -265 3
-204 0 -266 -3 -269 -12z"/>
<path d="M6545 10389 c-442 -41 -832 -201 -1088 -449 -191 -183 -292 -369
-333 -612 -14 -85 -16 -138 -10 -307 3 -112 10 -256 16 -320 5 -64 14 -179 20
-256 6 -77 13 -163 16 -191 l5 -51 -52 -6 c-98 -12 -156 -71 -184 -188 -49
-209 37 -561 190 -775 66 -92 164 -141 203 -102 6 6 13 10 16 7 2 -2 30 -71
61 -154 124 -323 251 -568 347 -671 l28 -30 -2 -259 -3 -259 -250 -62 c-137
-34 -446 -112 -685 -172 -856 -218 -823 -207 -915 -297 -155 -151 -228 -413
-242 -862 l-6 -211 45 -21 c100 -45 318 -122 440 -155 29 -8 89 -24 133 -36
82 -22 135 -34 310 -71 694 -146 1657 -218 2550 -190 337 11 426 16 745 42
373 30 814 93 1145 163 311 67 694 180 825 244 l55 27 -3 165 c-7 428 -85 726
-232 883 -108 116 -4 83 -1409 438 -261 66 -478 122 -483 125 -4 3 -8 121 -8
263 0 250 1 258 21 277 26 24 96 121 139 194 51 86 164 316 205 415 20 50 48
114 61 143 13 29 24 60 24 68 0 12 5 14 18 9 59 -25 72 -27 108 -21 84 16 203
184 269 381 62 183 82 407 49 526 -27 97 -107 168 -191 169 -17 0 -34 3 -36 8
-7 11 17 442 43 787 21 263 12 322 -72 494 -121 247 -311 425 -503 472 -33 8
-63 24 -90 49 -307 287 -781 426 -1290 379z"/>
</g>
</svg>
