<?xml version="1.0" standalone="no"?>
<!DOCTYPE svg PUBLIC "-//W3C//DTD SVG 20010904//EN"
 "http://www.w3.org/TR/2001/REC-SVG-20010904/DTD/svg10.dtd">
<svg version="1.0" xmlns="http://www.w3.org/2000/svg"
 width="120.000000pt" height="120.000000pt" viewBox="0 0 120.000000 120.000000"
 preserveAspectRatio="xMidYMid meet">
<metadata>
Created by potrace 1.12, written by Peter Selinger 2001-2015
</metadata>
<g transform="translate(0.000000,120.000000) scale(0.100000,-0.100000)"
fill="#000000" stroke="none">
<path d="M465 1134 c-111 -28 -178 -66 -260 -149 -121 -120 -150 -196 -150
-385 0 -192 30 -266 156 -391 103 -102 228 -152 379 -152 155 0 277 50 385
158 108 108 158 230 158 385 0 152 -48 272 -152 379 -119 120 -192 151 -371
156 -69 2 -134 2 -145 -1z m280 -44 c217 -75 358 -267 358 -490 0 -250 -177
-457 -434 -508 -72 -14 -86 -14 -161 1 -199 39 -343 164 -408 353 -27 78 -28
229 -1 305 57 167 169 280 333 339 76 27 235 27 313 0z"/>
<path d="M515 1056 c-38 -17 -90 -72 -104 -109 -24 -64 -14 -116 49 -244 l59
-123 -90 0 -90 0 -70 -142 -69 -143 201 -3 c110 -1 288 -1 395 0 l194 3 -69
143 -70 142 -90 0 -90 0 59 123 c63 128 73 180 49 244 -14 38 -67 92 -106 109
-41 18 -119 17 -158 0z m197 -535 c17 -31 66 -51 125 -51 26 0 36 -6 49 -32
16 -31 16 -32 -6 -50 -17 -14 -40 -18 -101 -18 -79 0 -123 12 -163 44 -19 16
-19 17 9 76 33 69 59 79 87 31z m-242 -111 l0 -90 -110 0 -110 0 25 57 c14 31
27 58 28 60 17 16 118 62 140 62 l27 1 0 -90z m102 27 c43 -43 76 -67 104 -75
57 -17 157 -15 201 3 20 8 37 14 38 13 0 -2 6 -15 13 -30 l12 -28 -225 0 -225
0 0 90 c0 51 4 90 10 90 5 0 38 -28 72 -63z"/>
</g>
</svg>
