<?xml version="1.0" standalone="no"?>
<!DOCTYPE svg PUBLIC "-//W3C//DTD SVG 20010904//EN"
 "http://www.w3.org/TR/2001/REC-SVG-20010904/DTD/svg10.dtd">
<svg version="1.0" xmlns="http://www.w3.org/2000/svg"
 width="1500.000000pt" height="1500.000000pt" viewBox="0 0 1500.000000 1500.000000"
 preserveAspectRatio="xMidYMid meet">
<metadata>
Created by potrace 1.12, written by Peter Selinger 2001-2015
</metadata>
<g transform="translate(0.000000,1500.000000) scale(0.100000,-0.100000)"
fill="#000000" stroke="none">
<path d="M7210 14454 c-564 -37 -877 -82 -1350 -195 -894 -214 -1690 -582
-2445 -1129 -808 -586 -1504 -1368 -1993 -2242 -483 -862 -772 -1824 -864
-2878 -16 -190 -16 -840 0 -1030 80 -914 304 -1748 678 -2520 435 -897 1079
-1714 1849 -2345 815 -669 1729 -1128 2738 -1374 1151 -282 2213 -282 3364 0
904 221 1713 602 2468 1164 288 214 468 369 733 630 1210 1190 1917 2713 2064
4445 7 91 13 303 13 515 0 559 -45 976 -164 1510 -239 1071 -684 1998 -1373
2856 -533 666 -1223 1254 -1973 1684 -862 495 -1841 798 -2880 891 -158 14
-739 26 -865 18z m865 -218 c1004 -90 1927 -377 2780 -864 535 -305 982 -648
1431 -1096 448 -449 788 -893 1096 -1431 494 -864 778 -1790 870 -2835 17
-191 17 -840 0 -1030 -82 -925 -300 -1713 -689 -2494 -931 -1870 -2676 -3211
-4711 -3621 -473 -95 -834 -130 -1347 -129 -350 0 -527 9 -785 40 -1381 166
-2635 723 -3680 1637 -148 129 -488 469 -617 617 -839 960 -1379 2097 -1592
3355 -24 144 -55 396 -73 595 -16 190 -16 839 0 1030 80 916 300 1714 689
2495 265 531 583 1005 976 1455 129 148 469 488 617 617 1045 913 2304 1473
3680 1637 107 13 255 25 490 40 126 8 707 -4 865 -18z"/>
<path d="M7260 11849 c-871 -69 -1556 -351 -2058 -847 -449 -444 -709 -1017
-786 -1727 -8 -77 -17 -177 -21 -222 l-5 -83 633 0 634 0 7 112 c24 402 126
732 309 1003 81 119 266 303 381 379 234 154 499 244 841 287 128 16 530 16
660 0 261 -32 468 -89 660 -180 431 -205 701 -537 796 -979 30 -140 37 -418
15 -570 -29 -196 -87 -363 -188 -539 -168 -293 -345 -455 -1102 -1004 -390
-283 -536 -400 -710 -569 -281 -272 -416 -467 -501 -723 -77 -231 -108 -500
-88 -754 l6 -83 601 0 601 0 1 188 c1 167 3 197 26 282 50 184 140 340 281
483 115 117 179 165 550 415 468 317 654 454 893 659 141 119 356 337 441 445
237 299 406 727 459 1158 21 170 15 568 -10 730 -65 410 -207 757 -439 1070
-99 133 -346 377 -494 487 -455 340 -999 531 -1662 583 -155 12 -576 11 -731
-1z"/>
<path d="M6640 3830 l0 -710 690 0 690 0 0 710 0 710 -690 0 -690 0 0 -710z"/>
</g>
</svg>
