<?xml version="1.0" standalone="no"?>
<!DOCTYPE svg PUBLIC "-//W3C//DTD SVG 20010904//EN"
 "http://www.w3.org/TR/2001/REC-SVG-20010904/DTD/svg10.dtd">
<svg version="1.0" xmlns="http://www.w3.org/2000/svg"
 width="1500.000000pt" height="1500.000000pt" viewBox="0 0 1500.000000 1500.000000"
 preserveAspectRatio="xMidYMid meet">
<metadata>
Created by potrace 1.12, written by Peter Selinger 2001-2015
</metadata>
<g transform="translate(0.000000,1500.000000) scale(0.100000,-0.100000)"
fill="#000000" stroke="none">
<path d="M7210 14454 c-564 -37 -877 -82 -1350 -195 -894 -214 -1690 -582
-2445 -1129 -808 -586 -1504 -1368 -1993 -2242 -483 -862 -772 -1824 -864
-2878 -16 -190 -16 -840 0 -1030 80 -914 304 -1748 678 -2520 435 -897 1079
-1714 1849 -2345 815 -669 1729 -1128 2738 -1374 1151 -282 2213 -282 3364 0
904 221 1713 602 2468 1164 288 214 468 369 733 630 1210 1190 1917 2713 2064
4445 7 91 13 303 13 515 0 559 -45 976 -164 1510 -239 1071 -684 1998 -1373
2856 -533 666 -1223 1254 -1973 1684 -862 495 -1841 798 -2880 891 -158 14
-739 26 -865 18z m865 -218 c1004 -90 1927 -377 2780 -864 535 -305 982 -648
1431 -1096 448 -449 788 -893 1096 -1431 494 -864 778 -1790 870 -2835 17
-191 17 -840 0 -1030 -82 -925 -300 -1713 -689 -2494 -931 -1870 -2676 -3211
-4711 -3621 -473 -95 -834 -130 -1347 -129 -350 0 -527 9 -785 40 -1381 166
-2635 723 -3680 1637 -148 129 -488 469 -617 617 -839 960 -1379 2097 -1592
3355 -24 144 -55 396 -73 595 -16 190 -16 839 0 1030 80 916 300 1714 689
2495 265 531 583 1005 976 1455 129 148 469 488 617 617 1045 913 2304 1473
3680 1637 107 13 255 25 490 40 126 8 707 -4 865 -18z"/>
<path d="M5995 11770 c-77 -4 -160 -10 -185 -13 -25 -4 -84 -11 -132 -17 -163
-20 -500 -94 -547 -121 -9 -5 -72 -28 -141 -50 -169 -56 -268 -97 -443 -185
-488 -244 -895 -577 -1228 -1004 -401 -515 -654 -1124 -733 -1769 -55 -438
-41 -779 49 -1221 131 -640 463 -1271 920 -1748 568 -593 1305 -974 2112
-1091 367 -54 866 -43 1183 25 304 65 486 118 695 201 148 59 440 202 484 238
14 11 66 45 114 75 121 75 325 229 452 341 59 52 110 95 114 97 5 1 685 -511
1512 -1139 827 -628 1518 -1148 1536 -1155 41 -18 115 -18 156 -1 18 8 48 32
67 53 54 59 435 564 453 601 24 46 22 120 -5 173 -21 40 -184 167 -1525 1185
-826 627 -1508 1146 -1514 1152 -10 10 3 44 59 160 88 185 138 311 192 483 23
74 48 149 55 167 19 43 71 302 90 448 25 192 34 459 24 675 -18 364 -62 594
-186 975 -193 594 -556 1140 -1036 1562 -575 506 -1264 807 -2039 892 -139 16
-390 21 -553 11z m515 -916 c230 -32 475 -93 643 -161 32 -12 63 -23 68 -23
12 0 309 -147 327 -163 15 -12 39 -26 89 -52 18 -9 37 -23 44 -31 6 -8 15 -14
20 -14 12 0 251 -184 311 -238 464 -428 743 -931 868 -1566 38 -188 44 -589
14 -826 -32 -258 -133 -615 -208 -740 -12 -19 -35 -64 -51 -100 -93 -204 -325
-530 -504 -709 -133 -132 -233 -225 -291 -270 -141 -108 -373 -245 -520 -306
-36 -15 -83 -35 -106 -46 -59 -26 -268 -94 -349 -112 -38 -9 -104 -23 -145
-32 -41 -9 -94 -20 -117 -25 -227 -52 -815 -27 -1056 45 -28 8 -54 15 -57 16
-49 1 -375 121 -495 182 -22 11 -40 19 -40 17 0 -1 -22 11 -50 27 -27 16 -57
32 -65 36 -8 4 -28 16 -45 27 -16 11 -37 23 -45 27 -74 34 -351 254 -476 378
-165 164 -227 237 -360 430 -81 117 -215 371 -274 520 -67 169 -133 431 -166
655 -33 230 -18 648 31 865 39 172 59 252 66 266 4 9 10 27 13 40 19 97 143
379 235 534 17 28 37 64 46 80 23 46 234 326 287 381 135 141 169 175 238 234
41 36 79 68 85 73 5 4 20 15 32 25 11 9 31 24 43 32 12 8 41 29 64 46 67 50
221 141 336 200 98 49 126 61 395 164 130 49 367 99 569 120 125 12 490 9 596
-6z"/>
</g>
</svg>
